# xmcd
#
# Track frame offsets:
#	150
#	13670
#	26606
#	42017
#	55369
#	72389
#	86780
#	96498
#	108614
#	123577
#
# Disc length: 1803 seconds
#
# Revision: 0
# Processed by: cddbd v1.5.1PL2 Copyright (c) Steve Scherf et al.
# Submitted via: dBpowerAMP V4.0
#
DISCID=8c07090a
DTITLE=Los Huracanes del norte - Dejate querer
DYEAR=2005
DGENRE=norteno
TTITLE0=El poeta
TTITLE1=Nada contigo
TTITLE2=El vencido
TTITLE3=En caliente
TTITLE4=Dejate querer
TTITLE5=Como me duele
TTITLE6=Me han pasado cosas peor
TTITLE7=Ya ves es dificil olvidarnos
TTITLE8=Juanita y Julian
TTITLE9=El arrepentido
EXTD=
EXTT0=
EXTT1=
EXTT2=
EXTT3=
EXTT4=
EXTT5=
EXTT6=
EXTT7=
EXTT8=
EXTT9=
PLAYORDER=
